<?xml version="1.0" encoding="iso-8859-1"?>
<!-- Generator: Adobe Illustrator 19.0.0, SVG Export Plug-In . SVG Version: 6.00 Build 0)  -->
<svg version="1.1" id="Capa_1" xmlns="http://www.w3.org/2000/svg" xmlns:xlink="http://www.w3.org/1999/xlink" x="0px" y="0px"
	 viewBox="0 0 512 512" style="enable-background:new 0 0 512 512;" xml:space="preserve">
<g>
	<g>
		<path d="M512,76.455c0-11.522-4.483-22.359-12.639-30.528c-8.024-8.016-18.686-12.501-30.025-12.629
			c-0.166-0.002-0.331-0.003-0.496-0.003c-11.157,0-21.726,4.235-29.81,11.961L181.706,291.305
			c-1.001-0.079-2.005-0.146-3.015-0.188c-22.089-0.922-44.639,6.05-63.522,19.636c-14.199,10.216-22.301,22.839-30.136,35.046
			c-3.527,5.495-6.858,10.684-10.72,15.636c-14.593,18.711-38.937,27.403-58.514,32.885L0,398.744l5.806,15.345
			c16.202,42.82,72.21,63.486,117.393,64.566c1.387,0.033,2.781,0.05,4.188,0.05c43.892,0,97.205-16.348,119.881-62.634
			c8.112-16.556,10.645-35.412,7.75-53.551l245.025-256.255C507.753,98.199,512,87.611,512,76.455z M220.305,402.86
			c-17.185,35.078-62.672,46.593-96.388,45.777c-23.852-0.57-62.563-9.702-81.512-31.268c19.645-7.125,40.505-18.133,55.586-37.469
			c4.71-6.038,8.575-12.059,12.313-17.883c6.894-10.74,12.847-20.017,22.403-26.892c13.45-9.677,29.323-14.655,44.73-14.008
			c22.796,0.954,34.966,15.829,40.191,24.611C228.001,363.166,229.028,385.057,220.305,402.86z M478.339,85.517L243.723,330.885
			c-0.099-0.169-0.191-0.34-0.292-0.508c-7.367-12.384-17.286-22.19-28.898-28.917L459.777,66.961
			c5.203-4.973,13.27-4.882,18.347,0.194c2.482,2.485,3.849,5.789,3.849,9.3C481.974,79.847,480.682,83.065,478.339,85.517z"/>
	</g>
</g>
<g>
</g>
<g>
</g>
<g>
</g>
<g>
</g>
<g>
</g>
<g>
</g>
<g>
</g>
<g>
</g>
<g>
</g>
<g>
</g>
<g>
</g>
<g>
</g>
<g>
</g>
<g>
</g>
<g>
</g>
</svg>
